Motion_pl11
version=1
nRows=13
nColumns=43
inDegrees=yes
endheader
time	pelvis_tilt	pelvis_list	pelvis_rotation	pelvis_tx	pelvis_ty	pelvis_tz	hip_flexion_r	hip_adduction_r	hip_rotation_r	knee_angle_r	ankle_angle_r	subtalar_angle_r	mtp_angle_r	hip_flexion_l	hip_adduction_l	hip_rotation_l	knee_angle_l	ankle_angle_l	subtalar_angle_l	mtp_angle_l	lumbar_extension	lumbar_bending	lumbar_rotation	neck_flexion	neck_lateral_bending	neck_rotation	arm_flex_r	arm_add_r	arm_rot_r	elbow_flex_r	pro_sup_r	wrist_flex_r	wrist_dev_r	hand_finger_flex_r	arm_flex_l	arm_add_l	arm_rot_l	elbow_flex_l	pro_sup_l	wrist_flex_l	wrist_dev_l	hand_finger_flex_l
      2.86250000	     -1.38244356	     -0.82951163	     91.16379376	     -0.00746008	      0.47979978	      0.35686056	     82.11644949	    -17.03274856	      8.27121350	   -131.73980987	     19.43863453	     32.87235617	     49.10475234	     80.62689093	    -13.26879635	      3.17649394	   -132.44520967	     21.23058691	     33.51485703	     40.07070276	    -37.25089414	     -5.73795092	     -4.24934007	      0.06631194	     10.04067602	     -0.31199515	    131.90787519	    -16.59077330	     52.33205827	     22.19688706	    127.75762765	     11.59072004	    -13.52730179	    -41.60131223	    136.86396209	    -11.13213355	     60.84440059	     24.20308624	    130.25192104	     -4.55465630	      7.90729702	    -22.79917581
      2.86500000	     -1.34890893	     -0.89257656	     91.09558874	     -0.00721014	      0.48029327	      0.35682512	     82.10368058	    -16.94112806	      8.03144136	   -131.61243957	     19.32255594	     32.37155104	     49.51340499	     80.62602169	    -13.36564846	      2.94670370	   -132.35618779	     21.30595591	     32.42257696	     40.21910676	    -37.16920740	     -5.74277692	     -4.22370015	     -0.22740201	     10.00785500	     -0.45500305	    131.80391014	    -16.57448268	     52.12258145	     22.30603325	    127.46950530	     11.52547683	    -13.50065597	    -41.65260714	    136.77572081	    -11.38610558	     60.73791581	     24.55042900	    130.01869584	     -4.71955960	      7.75731662	    -22.74730967
      2.86750000	     -1.34976439	     -0.92462424	     91.09718728	     -0.00718395	      0.48050812	      0.35661523	     82.07497452	    -16.91614124	      8.02290023	   -131.60114923	     19.31716332	     32.36472998	     49.52347620	     80.59648328	    -13.33622076	      2.92100389	   -132.34990873	     21.30075211	     32.41473309	     40.22287687	    -37.11809607	     -5.72983045	     -4.21423843	     -0.21977848	     10.00597534	     -0.44912424	    131.82413683	    -16.56898687	     52.11569845	     22.30775167	    127.46456851	     11.52200097	    -13.49682479	    -41.65374247	    136.77529848	    -11.39309615	     60.73754833	     24.53424833	    130.01494294	     -4.71754884	      7.76410305	    -22.74447842
      2.87000000	     -1.34241365	     -0.97057227	     91.09360091	     -0.00722478	      0.48082817	      0.35656783	     82.05413944	    -16.85752156	      7.97527193	   -131.49983173	     19.29706213	     32.32971138	     49.56344343	     80.58264569	    -13.27952060	      2.83682428	   -132.26153509	     21.30180020	     32.34921623	     40.23692617	    -37.05828824	     -5.69308798	     -4.18283884	     -0.20855424	      9.98332755	     -0.42975662	    131.82978553	    -16.53854775	     52.08911986	     22.30631785	    127.43986129	     11.51135746	    -13.48305001	    -41.65891605	    136.75688867	    -11.39670988	     60.73759679	     24.49360910	    129.99756741	     -4.71223407	      7.78553144	    -22.73504312
      2.87250000	     -1.34467795	     -1.00292375	     91.09367210	     -0.00716949	      0.48103886	      0.35629295	     82.03015331	    -16.84742654	      7.95988200	   -131.49737815	     19.28962725	     32.32402398	     49.57056802	     80.55987711	    -13.27232676	      2.82600323	   -132.26007081	     21.30076644	     32.33400522	     40.23923390	    -37.01852692	     -5.69340040	     -4.18532386	     -0.21113626	      9.97771714	     -0.42736287	    131.85694560	    -16.53713933	     52.07725962	     22.30936859	    127.43380100	     11.50516469	    -13.48026310	    -41.66116424	    136.77005903	    -11.39716010	     60.73402879	     24.49059187	    129.99443072	     -4.71404519	      7.78928855	    -22.73451418
      2.87500000	     -1.23013225	     -1.13752974	     91.03608238	     -0.00694629	      0.48122923	      0.35649112	     82.10953916	    -16.70361672	      7.68212273	   -131.38725842	     18.97860818	     31.82320130	     50.03105836	     80.69622287	    -13.33563320	      2.73107560	   -132.21435719	     21.43253604	     31.20440523	     40.39064679	    -36.87515085	     -5.59219554	     -4.10372841	     -0.32406581	      9.64212425	     -0.31358255	    131.75754544	    -16.37414759	     51.56311802	     22.23570059	    127.06185397	     11.30835431	    -13.33243227	    -41.76309719	    136.77731572	    -11.40057654	     60.67615800	     24.40946095	    129.79578734	     -4.76251517	      7.97143878	    -22.69696341
      2.87750000	     -1.23589585	     -1.16824043	     91.03749890	     -0.00688772	      0.48143879	      0.35631668	     82.08333389	    -16.68222233	      7.66935802	   -131.37907437	     18.97404840	     31.81994918	     50.04055295	     80.67042384	    -13.30919053	      2.71548364	   -132.20130604	     21.42362319	     31.20298020	     40.39357750	    -36.83424222	     -5.58672891	     -4.10125661	     -0.32384633	      9.64989337	     -0.31553050	    131.77816762	    -16.36842885	     51.55746052	     22.23971041	    127.05916616	     11.30696938	    -13.33114485	    -41.76308104	    136.77439534	    -11.41355659	     60.67796714	     24.40840810	    129.79361451	     -4.76261857	      7.97134638	    -22.69650716
      2.88000000	     -1.23721138	     -1.16749283	     91.03675420	     -0.00684094	      0.48162021	      0.35621096	     82.08283875	    -16.68100504	      7.66845674	   -131.37834225	     18.97382202	     31.81987317	     50.04088644	     80.67007247	    -13.30767543	      2.71452883	   -132.20055765	     21.42332680	     31.20290293	     40.39367553	    -36.83064341	     -5.58518671	     -4.10155767	     -0.32388036	      9.65009783	     -0.31557894	    131.77974397	    -16.36818073	     51.55699387	     22.23999362	    127.05897983	     11.30677331	    -13.33111347	    -41.76312741	    136.77543320	    -11.41326032	     60.67786779	     24.40881341	    129.79351634	     -4.76273578	      7.97131395	    -22.69652303
      2.88250000	     -1.24037082	     -1.28266501	     91.04006948	     -0.00685791	      0.48220295	      0.35636948	     82.05694006	    -16.60008834	      7.61110908	   -131.18405146	     18.93361440	     31.78338780	     50.10041132	     80.65548578	    -13.18808506	      2.66054483	   -132.01198619	     21.37698202	     31.15561406	     40.41013396	    -36.76361138	     -5.55798685	     -4.09598147	     -0.33946443	      9.65250463	     -0.31782165	    131.82033802	    -16.33178842	     51.49456222	     22.24039765	    127.02372091	     11.29314983	    -13.32565147	    -41.76839616	    136.79366249	    -11.44317244	     60.67852778	     24.43014273	    129.77073557	     -4.76542949	      7.97692003	    -22.69326751
      2.88500000	     -1.24222642	     -1.28297345	     91.03927876	     -0.00680013	      0.48238508	      0.35627377	     82.05627578	    -16.59932922	      7.61028103	   -131.18432048	     18.93331510	     31.78326722	     50.10076314	     80.65521639	    -13.18703906	      2.66009834	   -132.01236146	     21.37672038	     31.15535868	     40.41023952	    -36.76071201	     -5.55642181	     -4.09646147	     -0.33953410	      9.65249099	     -0.31778248	    131.82198987	    -16.33158809	     51.49386966	     22.24064914	    127.02344459	     11.29285868	    -13.32563575	    -41.76848660	    136.79493144	    -11.44263359	     60.67833895	     24.43064858	    129.77058514	     -4.76557124	      7.97694186	    -22.69327713
      2.88750000	     -1.26332421	     -1.36753244	     91.04059231	     -0.00672577	      0.48276304	      0.35634784	     82.04167370	    -16.53225635	      7.54361514	   -131.09088022	     18.90442244	     31.76336342	     50.13734471	     80.65852084	    -13.07662241	      2.62536569	   -131.92663208	     21.34848513	     31.11967239	     40.42006476	    -36.71864812	     -5.55493686	     -4.09913868	     -0.34247071	      9.63522873	     -0.30843441	    131.86692928	    -16.30309298	     51.43227281	     22.24324328	    126.99283476	     11.27489045	    -13.32548197	    -41.77615547	    136.82975880	    -11.45720449	     60.66885231	     24.43782335	    129.75061544	     -4.76587406	      7.98775038	    -22.68846150
      2.89000000	     -1.26740311	     -1.40389556	     91.04191376	     -0.00665857	      0.48294456	      0.35622662	     82.02561205	    -16.53832607	      7.55075344	   -131.07262061	     18.89804077	     31.75585166	     50.14538647	     80.64426606	    -13.07401924	      2.63830603	   -131.91190016	     21.34194519	     31.10787297	     40.42216511	    -36.68922597	     -5.55260511	     -4.10335259	     -0.34119004	      9.63013830	     -0.30509269	    131.88881392	    -16.28972468	     51.41512132	     22.24841644	    126.98496495	     11.26888622	    -13.32629187	    -41.77851890	    136.84504862	    -11.45129209	     60.66567275	     24.44404680	    129.74559245	     -4.76649904	      7.98953909	    -22.68723936
      2.89250000	     -1.26950048	     -1.40617244	     91.04053778	     -0.00660493	      0.48311522	      0.35613424	     82.02530375	    -16.53812907	      7.55060044	   -131.07155938	     18.89782249	     31.75562717	     50.14573379	     80.64441228	    -13.07316027	      2.63872019	   -131.91111031	     21.34176576	     31.10737980	     40.42225898	    -36.68851272	     -5.55063856	     -4.10381185	     -0.34108589	      9.62994482	     -0.30489482	    131.88965257	    -16.28943383	     51.41430521	     22.24840181	    126.98460525	     11.26861726	    -13.32628617	    -41.77862869	    136.84576404	    -11.45085711	     60.66554379	     24.44425597	    129.74535405	     -4.76646675	      7.98961834	    -22.68715598
